
<global>
amp_veltrack=0
ampeg_release=0.45
</global>

<group>
group_label=PP
lpc_hicc1=63
lpc_locc1=0

<region>
hikey=a3
hivel=127
lokey=g#3
loop_end=287075
loop_mode=loop_continuous
loop_start=94603
loop_xfade=51674
lovel=0
lpc=oWQjQU6228F8AQFCZBGvwTgfMUEeRs3AeOuCQJo4N8BRSB5AsQ7zv1uEQT86q1Q/eItiv7sAkb9YLZtA5TwTwW5DO0FgIxnBiMSjQH3eCMBTgaC9MuHxP+5zFcBK250/
lpc_rms=-34.32
pitch_keycenter=a3
sample=Soloviolin2_sul_tasto_PP_A3.opus
</region>

<region>
hikey=a4
hivel=127
lokey=g#4
loop_end=270343
loop_mode=loop_continuous
loop_start=93217
loop_xfade=50917
lovel=0
lpc=GHsQQZcJvcGSbOJBZ9yuwVmnckG9HjrBnk4NQZFC0sA4V5lAvK9XwOHrLEDBLb6/iQSYvuGrWb2E/xFAXF4uwEjnMUAsrRrAxyurPzilb7/WwT0/Iwx/vtOYDL5VQiY+
lpc_rms=-33.76
pitch_keycenter=a4
sample=Soloviolin2_sul_tasto_PP_A4.opus
</region>

<region>
hikey=a5
hivel=127
lokey=g#5
loop_end=277273
loop_mode=loop_continuous
loop_start=89080
loop_xfade=48658
lovel=0
lpc=rujOQOr/PMEXOlVBrHkWwQp+20AjZ47ABVlqQATvCcBV9es/57sQvqMNFD+O/ZC/YdZPQHAPMcAVdD5ASnaWv034Mz5pvLA/EZRYvZxMS79OLghAVe3nvwHD/D8rS8w9
lpc_rms=-31.63
pitch_keycenter=a5
sample=Soloviolin2_sul_tasto_PP_A5.opus
</region>

<region>
hikey=a6
hivel=127
lokey=g#6
loop_end=273533
loop_mode=loop_continuous
loop_start=79787
loop_xfade=43582
lovel=0
lpc=bl85QTYgVMF8hhpBQ4NowCZF/T/DFi/AuV9jQIeDT8D6CTtARJgJPwLmTz3t4tS+/SSCQJ1BCsHW3t4/4PubQCkGn8DyaitAjm8iP3XncT9+poG/l3c+QIUKRMCIqMw/
lpc_rms=-30.63
pitch_keycenter=a6
sample=Soloviolin2_sul_tasto_PP_A6.opus
</region>

<region>
hikey=b3
hivel=127
lokey=a#3
loop_end=264200
loop_mode=loop_continuous
loop_start=78686
loop_xfade=42980
lovel=0
lpc=NzeXQZ4GR8IydFRCpIb/wRyca0G3awTBFMfPQFId1cCUdbJAXLlLvxkUkMBXxL1ATbUJwOSiisDYGwtBoNkJwWzZDkH57gzBS12XQG3VTr+kV1HANe7FQGVSjcBeg6o/
lpc_rms=-28.48
pitch_keycenter=b3
sample=Soloviolin2_sul_tasto_PP_B3.opus
</region>

<region>
hikey=b4
hivel=127
lokey=a#4
loop_end=269080
loop_mode=loop_continuous
loop_start=78314
loop_xfade=42777
lovel=0
lpc=KjO1QJjIYcGji45B8ftvwehFIUE6h6vAv4sJQKt7RL+S9Js/aywRwKCYQ0BPtCzAnz0QQAheC8DbjsQ/A2sOv9+AGD+wn5q/1FLZP7WTKb+D5ai/XNQTQA3JyL+h1cs+
lpc_rms=-35.69
pitch_keycenter=b4
sample=Soloviolin2_sul_tasto_PP_B4.opus
</region>

<region>
hikey=b5
hivel=127
lokey=a#5
loop_end=285139
loop_mode=loop_continuous
loop_start=91533
loop_xfade=49997
lovel=0
lpc=Yzr1QNaqCcHrxtlAJwGHwCBrEkDNTri/Z/j8P1DGG8AdfzFAyK8owBcgQkDuLHvAjR6VQI2Ng8AmiWNAwCQxwBXhEkBNwxDAb7cBQOVVXb+P53A/IwUDwN9Sc0D5PqbA
lpc_rms=-33.53
pitch_keycenter=b5
sample=Soloviolin2_sul_tasto_PP_B5.opus
</region>

<region>
hikey=E7
hivel=127
lokey=a#6
loop_end=273120
loop_mode=loop_continuous
loop_start=122366
loop_xfade=78733
lovel=0
lpc=VD58QVtBocHoCHhBipbjwCrI8j9luQY/yOJjPa4MU8AV8JhAtAsAv7Trs79R1DVAZnJIwQAtT0FCYADBr/YgQI4GVT8NGee/IQtPPweoWkBhVZnAK66sP49S9z6HcwLA
lpc_rms=-29.86
pitch_keycenter=B6
sample=Soloviolin2_sul_tasto_PP_B6.opus
</region>

<region>
hikey=c#4
hivel=127
lokey=c4
loop_end=271858
loop_mode=loop_continuous
loop_start=80295
loop_xfade=43858
lovel=0
lpc=GWdHQhzfGMOxC0pDn4Ucw1huqUJMzz/CB5gbQkyzB8IgML5BN0aHwLC8g8GYuqhBFA2xwFxHIsFJ/rtBc0EQwv/xHUL56OrBIOaAQaEAy8BsoMfAT9dbQbhoPMGv5pVA
lpc_rms=-22.59
pitch_keycenter=c#4
sample=Soloviolin2_sul_tasto_PP_C#4.opus
</region>

<region>
hikey=c#5
hivel=127
lokey=c5
loop_end=262391
loop_mode=loop_continuous
loop_start=75203
loop_xfade=41077
lovel=0
lpc=iVfjQXwljMKEa6RCxGt2wndeBUIHdW7BzXG+QIZeAsFGpmZBpwYdwWHZTb/vWgVBTSy3wG2RKcB6BzFBZ/Q8wfq0BkHfmFjAzESyPosFMr/sAQTADT7qQMnBKsGtDO9A
lpc_rms=-25.44
pitch_keycenter=c#5
sample=Soloviolin2_sul_tasto_PP_C#5.opus
</region>

<region>
hikey=c#6
hivel=127
lokey=c6
loop_end=259500
loop_mode=loop_continuous
loop_start=89068
loop_xfade=48650
lovel=0
lpc=FzziQUlhGcKyUupBRMGhwbU2UkGdzRbBFMMUQX0oBsFw1OVAbb8DwXdVOEGHVlDBlX9hQSR0XcFzO0NBpW0mwf4lJUFG+xXB3wINQWJiCsFWYCRBFEK3wbkwH0HDG0A/
lpc_rms=-28.88
pitch_keycenter=c#6
sample=Soloviolin2_sul_tasto_PP_C#6.opus
</region>

<region>
hikey=d#4
hivel=127
lokey=d4
loop_end=267421
loop_mode=loop_continuous
loop_start=79609
loop_xfade=43484
lovel=0
lpc=+GEdQfhg08Hpg/1B9qiywd0aREG2dAfB1+ngQCPJtsDpOYVA4lxdwNEUEEAGD2C+zV0zv4MYg7/IQJJABJ/2wD1QEEHca/HAT6eWQL2fKcA2cANAK1jzvwycmj+gzGa+
lpc_rms=-33.31
pitch_keycenter=d#4
sample=Soloviolin2_sul_tasto_PP_D#4.opus
</region>

<region>
hikey=d#5
hivel=127
lokey=d5
loop_end=283569
loop_mode=loop_continuous
loop_start=91147
loop_xfade=49787
lovel=0
lpc=t+TNQBCcdsFOTJBBuSpQwWo++EAnydPA/ijLQL+oqMA3N6VA4oyXwKByW0BbusC/+YNMP1OMMb+iGPQ/+3RFwPZSN0DogPq/L9IDQLi5PsAdyh5AyHQzv0Ronb2h5dU+
lpc_rms=-35.05
pitch_keycenter=d#5
sample=Soloviolin2_sul_tasto_PP_D#5.opus
</region>

<region>
hikey=d#6
hivel=127
lokey=d6
loop_end=274322
loop_mode=loop_continuous
loop_start=79135
loop_xfade=43225
lovel=0
lpc=uOwsQcCnV8Gi9i5BeGWiwI0+9j+06DLARgs0QNJiKsDLy0FAr4rOv/Y+gz/8XBm//WiSPxpPf78GEvU/ZT3ovzIcB0BZ7APA4iddQL24McGVdgtBj/9ZwDsJvb/CjTVA
lpc_rms=-34.04
pitch_keycenter=d#6
sample=Soloviolin2_sul_tasto_PP_D#6.opus
</region>

<region>
hikey=f4
hivel=127
lokey=e4
loop_end=283136
loop_mode=loop_continuous
loop_start=82838
loop_xfade=45248
lovel=0
lpc=QpRKQZe4B8KPhB9C/PHpwZbQlEGxQFTBiMcCQbqwi8AMdXBAy8dewOuS2j+Wtzo/1Jwkvt1WEMBJ6XNAbUd4wJK/T0DIc0XAMi1gQEkXbsCAekM/Y0M0QBbQP8CbKqY/
lpc_rms=-33.94
pitch_keycenter=f4
sample=Soloviolin2_sul_tasto_PP_F4.opus
</region>

<region>
hikey=f5
hivel=127
lokey=e5
loop_end=272757
loop_mode=loop_continuous
loop_start=87472
loop_xfade=47779
lovel=0
lpc=Udf3QFz/i8Eefp5B8AmAwYgOLEGUwVDAoooMwBPqKkAtuKq+UDNsv/oAuT91Z5O/rBIBP3aPqL+Zrn1AecqtwJGK2kD0MdnAkt6uQD+AJcAFlLA+/c5xP4VsnL8ChHQ/
lpc_rms=-32.30
pitch_keycenter=f5
sample=Soloviolin2_sul_tasto_PP_F5.opus
</region>

<region>
hikey=f6
hivel=127
lokey=e6
loop_end=277734
loop_mode=loop_continuous
loop_start=88682
loop_xfade=48440
lovel=0
lpc=DtOWQcAC48GN27NBw5VBwekUu0DNxD2/LW4DPzAAIcB3/yRAEK9ov8zs0T+gsHG//i0VQBxs6L9p4jxAZioWwPveiEBvQJzBYne5QSjoR8HtjVhAzfYMQIOKmMC12IRA
lpc_rms=-31.38
pitch_keycenter=f6
sample=Soloviolin2_sul_tasto_PP_F6.opus
</region>

<region>
hivel=127
key=g3
loop_end=264650
loop_mode=loop_continuous
loop_start=77029
loop_xfade=42075
lovel=0
lpc=leuMQaCGQcKHgWBCJr8Rwq52iEGK4DvBV31VQbBBXMHBMhFBS6VKwK7FLT5MoxhA/WOIv+UhnMAN4S5Bqv5lwdcQfUGb2z/BPmimQAI5SMDegvo/n54XQIQes8DzyVNA
lpc_rms=-29.29
sample=Soloviolin2_sul_tasto_PP_G3.opus
</region>

<region>
hikey=g4
hivel=127
lokey=f#4
loop_end=264441
loop_mode=loop_continuous
loop_start=83030
loop_xfade=45352
lovel=0
lpc=eqU0QSl18MHMmxRCFqHtwZIIqEHlc3fBMyAXQUTHzMDtBNdA1UPkwNKJmkDbteO/WE7oPud/Db941wpAcxqRwBRP5UADueXAWJBTQHPXzT8g/FrAdw4fQJAzq7+x3SU/
lpc_rms=-31.55
pitch_keycenter=g4
sample=Soloviolin2_sul_tasto_PP_G4.opus
</region>

<region>
hikey=g5
hivel=127
lokey=f#5
loop_end=279347
loop_mode=loop_continuous
loop_start=81033
loop_xfade=44262
lovel=0
lpc=5LahQOUNC8Hr8wNBisWiwIZidEA/lBTAAOkxQMFVe8ATEYZAGT/Sv7HgSb/3OO0/ohgYv9Yj4D5bBxS/Ff31Pwh3IcA3hFxA9n0TwOrHD0COKSPAF55rQNVhWcDOEARA
lpc_rms=-30.06
pitch_keycenter=g5
sample=Soloviolin2_sul_tasto_PP_G5.opus
</region>

<region>
hikey=g6
hivel=127
lokey=f#6
loop_end=282017
loop_mode=loop_continuous
loop_start=92794
loop_xfade=50686
lovel=0
lpc=wwNCQX64c8Fekx1BakKawNQZNkBXZLq/V2FlP5ZLtb9PpglAfkamv6vZ/D8N4ADAoC9mQO1bdsBGErlAwaRjwfPLMUGnaBTA8Cl4v1mDCUBuDADAG/0KQKTelr4c9gs9
lpc_rms=-31.56
pitch_keycenter=g6
sample=Soloviolin2_sul_tasto_PP_G6.opus
</region>
</group>

<group>
group_label=MF
lpc_hicc1=127
lpc_locc1=64

<region>
hikey=a3
hivel=127
lokey=g#3
loop_end=266821
loop_mode=loop_continuous
loop_start=79546
loop_xfade=43449
lovel=0
lpc=nIIWQcctxMEMPuFBUcyVwQQpEkHXr9fAUDP5QM0m78BG5ZFAmipmv/Y1Ub8rD4w+BAtXP0G0kr+PRSBAbZ2TwIdYiUC1AhTAV/0CQBh0GsBG77E/nVRovrGhI77js44+
lpc_rms=-33.44
pitch_keycenter=a3
sample=Soloviolin2_sul_tasto_MF_A3.opus
</region>

<region>
hikey=a4
hivel=127
lokey=g#4
loop_end=274094
loop_mode=loop_continuous
loop_start=77388
loop_xfade=42271
lovel=0
lpc=EQ0hQevk0cGhnvRBtl+1wQHhfEGemEPB0UTpQCWRhsD95cJAJaQTwVCB8kAr+5XAEzSOQI6i6r/EGMq/js4nPxweIUA/wDjArojsPxr+f78utIU+z5WVPYtICL4xPYw9
lpc_rms=-29.35
pitch_keycenter=a4
sample=Soloviolin2_sul_tasto_MF_A4.opus
</region>

<region>
hikey=a5
hivel=127
lokey=g#5
loop_end=277946
loop_mode=loop_continuous
loop_start=84719
loop_xfade=46275
lovel=0
lpc=3t/XQK3gM8FYKU9BpsIYwQRx9EDEaKDAqKCOQAWpR8B4KkZAMBRQv95iwz579x8/k4u+P7KKqr+eBBZApKyivsGEIj5+oyM/bS58PzToVL+43aI/FkRkvCgL5j3wg64/
lpc_rms=-24.91
pitch_keycenter=a5
sample=Soloviolin2_sul_tasto_MF_A5.opus
</region>

<region>
hikey=a6
hivel=127
lokey=g#6
loop_end=284451
loop_mode=loop_continuous
loop_start=79546
loop_xfade=43450
lovel=0
lpc=4By0QdRkzMEYNQ5B4IXQQEZywsBMXAJAn8oawHxXd0AJGte/W9yxvVNFvkChaI7A7PcDQW3NZ8HeC4/Awqu2QQ+5jsEFUalAvAiRP/lt1D/I/Vs/CCgowD+nkkCuo2zA
lpc_rms=-24.39
pitch_keycenter=a6
sample=Soloviolin2_sul_tasto_MF_A6.opus
</region>

<region>
hikey=b3
hivel=127
lokey=a#3
loop_end=276670
loop_mode=loop_continuous
loop_start=81570
loop_xfade=44555
lovel=0
lpc=DRV7QT4HKMLogElCQ3QRwri4kkEzTzHBr0QPQUEhBcHAgfVAUHCEwI2KPr9JDEVAodOUPnJ2gcBCKshA+ePrwExgEkG6+R3BPRTrQIyGh8DUTJo/tbWKvqyZHr8GjIA/
lpc_rms=-31.02
pitch_keycenter=b3
sample=Soloviolin2_sul_tasto_MF_B3.opus
</region>

<region>
hikey=b4
hivel=127
lokey=a#4
loop_end=286293
loop_mode=loop_continuous
loop_start=91521
loop_xfade=49991
lovel=0
lpc=fbrPQCKrfMGQwJVB/UBkwXEYCEGu9F7A81yCPfhKRj9HZ329Q1Slv/1FBEDfDZO/j3nJPaKs/D2FcUM/xV8MwP8EeEBSK33AznXDP1Ah9D8dPYvAjwGhQFZyXsAPTq4/
lpc_rms=-32.73
pitch_keycenter=b4
sample=Soloviolin2_sul_tasto_MF_B4.opus
</region>

<region>
hikey=b5
hivel=127
lokey=a#5
loop_end=280749
loop_mode=loop_continuous
loop_start=80406
loop_xfade=43919
lovel=0
lpc=dCcuQcTBN8GRxgNBEWhbwMwxyD/XFJa/rQ0RQB2Qxb9FH08/zu8GPwwGFj8Mdfa/vq1XQIzACMDh8C8/8apeP+BI7j2GyES/o7vFP9tCxL7/N4k+xa2ov0kNqUC4Wu/A
lpc_rms=-26.01
pitch_keycenter=b5
sample=Soloviolin2_sul_tasto_MF_B5.opus
</region>

<region>
hikey=E7
hivel=127
lokey=a#6
loop_end=292253
loop_mode=loop_continuous
loop_start=88793
loop_xfade=41736
lovel=0
lpc=ojpFQajaXcFtEMpAghihv9JaeL70jrc8Lyk0v307y7zGapK/oMiYQJeBdcBFKaRAO8dewRf/P0Eyzz/AfYSsv8C9/T/kOI2/8F+9P+pM8b5Z18U/PaSLwO1jIUA/gRvA
lpc_rms=-32.97
pitch_keycenter=B6
sample=Soloviolin2_sul_tasto_MF_B6.opus
</region>

<region>
hikey=c#4
hivel=127
lokey=c4
loop_end=272687
loop_mode=loop_continuous
loop_start=78412
loop_xfade=42830
lovel=0
lpc=yUccQvb24sJyhwxD5xbHwn0oPUL+lAHClK8kQmIDKcJwLfBBmqtdwTzdBEBdjJlA0ptoPq2vPMFaXbBByrTVwW6LyEHx8aDB/+19QaotM8HFlhu/nA6rQKWG0b6D5Dm/
lpc_rms=-21.27
pitch_keycenter=c#4
sample=Soloviolin2_sul_tasto_MF_C#4.opus
</region>

<region>
hikey=c#5
hivel=127
lokey=c5
loop_end=277677
loop_mode=loop_continuous
loop_start=78792
loop_xfade=43038
lovel=0
lpc=/5+DQUnIIcIC8EZCXyEowuW+3kGZxnvBZJDFQH0MWsDuWtpAfbkUwSvz3UCpqCi/bqBMP6wVosAQ8zZBJJiCweWbhEFMgV3BdlMeQVowzsC8lApAfC7aPxTLN8Dh3RxA
lpc_rms=-22.62
pitch_keycenter=c#5
sample=Soloviolin2_sul_tasto_MF_C#5.opus
</region>

<region>
hikey=c#6
hivel=127
lokey=c6
loop_end=277123
loop_mode=loop_continuous
loop_start=77499
loop_xfade=42331
lovel=0
lpc=6IiXQWktYMHJiZVAwrNPwCTkDEBi+SS/1m5oP+yjSL+g6p0/suB3PqE4jL7i0E8/3lAQv2HBsj+Uw0G/EFYCPwIpaz9WPY+/8vEUQGFEJsBF66VANkRGwVnSZ8C03shA
lpc_rms=-23.21
pitch_keycenter=c#6
sample=Soloviolin2_sul_tasto_MF_C#6.opus
</region>

<region>
hikey=d#4
hivel=127
lokey=d4
loop_end=275355
loop_mode=loop_continuous
loop_start=79745
loop_xfade=43559
lovel=0
lpc=bk5/QQM/McKfMGBCccgywscl1UGW3oTBqj5XQQ8ARMF2zC1BlNYDwVNXo0CQHj3ASyANQO/3LcAd3JRAXYuZwKgMmkA4XZzAUtJvQP1/GsDbPPW/J6HYQJs05sD1lUxA
lpc_rms=-26.14
pitch_keycenter=d#4
sample=Soloviolin2_sul_tasto_MF_D#4.opus
</region>

<region>
hikey=d#5
hivel=127
lokey=d5
loop_end=271747
loop_mode=loop_continuous
loop_start=77397
loop_xfade=42276
lovel=0
lpc=B/8fQaRK0MEz1QJCI2rBwQ+GTEHZzrjArDoPQBJPtb9puihA92BnwHXOc0B98ry/YvIpwGhkdEA+ypA/jlqLwNQBPUDTBMi/jrwUQP7Wrr+JL4S/4TgfQJPW279/NH8/
lpc_rms=-25.72
pitch_keycenter=d#5
sample=Soloviolin2_sul_tasto_MF_D#5.opus
</region>

<region>
hikey=d#6
hivel=127
lokey=d6
loop_end=274876
loop_mode=loop_continuous
loop_start=77197
loop_xfade=42167
lovel=0
lpc=XW9uQWE3W8EYSxJBsNDqwHwZakBcL+m/gm72Pzse0r/C6eA/DNaCv535rT/Daqq/tJT4P9HkxL/sk9w/5bOxv+D/BEBufAvApARxQAjPbMH/UARBUec/wI6YO0BLEGi+
lpc_rms=-26.13
pitch_keycenter=d#6
sample=Soloviolin2_sul_tasto_MF_D#6.opus
</region>

<region>
hikey=f4
hivel=127
lokey=e4
loop_end=279629
loop_mode=loop_continuous
loop_start=78807
loop_xfade=43046
lovel=0
lpc=XSc2Qe7i7MFmBQdC+GzAweOkeUGKCkXBEBL7QDUiXsDgPYFAq9mlwJUAwz/MFA5A0MoMwNUEaj9ACJO+bmq0Pk/woD4YbSu/MJaEP0GV0r8Slam9jgc0QGLoRsArSq0/
lpc_rms=-29.33
pitch_keycenter=f4
sample=Soloviolin2_sul_tasto_MF_F4.opus
</region>

<region>
hikey=f5
hivel=127
lokey=e5
loop_end=283895
loop_mode=loop_continuous
loop_start=91309
loop_xfade=49875
lovel=0
lpc=yfnbQNFHecHGsY1BWDddwfTYFkEv52/A5aXLvyyRUUCCMZS/wPpxvq2lNz+PoYq/+jy0P9wpCMB6XGdAaliRwEEnvECjZKHAOApPQOHRo79YEGK+m/G7P6Vfqb+Wlko/
lpc_rms=-30.50
pitch_keycenter=f5
sample=Soloviolin2_sul_tasto_MF_F5.opus
</region>

<region>
hikey=f6
hivel=127
lokey=e6
loop_end=280216
loop_mode=loop_continuous
loop_start=79043
loop_xfade=43175
lovel=0
lpc=K9VxQeU5fMHV0rJAzuUxvqLiuD5SSXE/wf/7v8zH9T6H/sw+vA+RPqCTLz+cE0Q8WpucP26nQb/PyNg/QrOhvwu4ZUBWAIDBiWNJQdeKSr4NmTXAO08UQGzXBsB2eUBA
lpc_rms=-27.48
pitch_keycenter=f6
sample=Soloviolin2_sul_tasto_MF_F6.opus
</region>

<region>
hivel=127
key=g3
loop_end=290096
loop_mode=loop_continuous
loop_start=83933
loop_xfade=45846
lovel=0
lpc=RgBzQdl2OsIco4VCyFhsws7hDEKV1IbB4WIwQeOgScGJ+WNBIns4wYi0q0AB9kY/VvtFwJxsWECwQgLAEJ6zvV70Jz8U4HC+yqbGPNjVzD6LgiLAKBqIQLtZV8CrLac/
lpc_rms=-34.98
offset=14748
sample=Soloviolin2_sul_tasto_MF_G3.opus
</region>

<region>
hikey=g4
hivel=127
lokey=f#4
loop_end=287084
loop_mode=loop_continuous
loop_start=80976
loop_xfade=44230
lovel=0
lpc=P3dBQcRf/8Fq1x1CerL/wUHdrUGCn17Bd0LAQCHaGMAO4nJAEaOjwFR9c0AzSi3ASbcHQEJap78nhF1AB6DvwD39EkGCnszApIn+PxZP9j9NRZfAo4mXQLx6HMCi3Ug/
lpc_rms=-28.30
pitch_keycenter=g4
sample=Soloviolin2_sul_tasto_MF_G4.opus
</region>

<region>
hikey=g5
hivel=127
lokey=f#5
loop_end=271868
loop_mode=loop_continuous
loop_start=78355
loop_xfade=42799
lovel=0
lpc=rqKxQNJNJsFDiSlBbIfbwCnjkECI5STAUiH0P2cPNr+nBOy9lbeWP9N9ab/AApQ/S0gSv8wEYL6Gpr0/nZKfvkmRPr0SBNS9XWo2P91BdD8DZP2/s9EyQKGzHcA3rOg/
lpc_rms=-25.89
pitch_keycenter=g5
sample=Soloviolin2_sul_tasto_MF_G5.opus
</region>

<region>
hikey=g6
hivel=127
lokey=f#6
loop_end=277370
loop_mode=loop_continuous
loop_start=77649
loop_xfade=42413
lovel=0
lpc=lxZaQf83SMFGE9VAemhtwCGqDj+fBkVAt4oQwOsWAMCmXF9AV/ldv+Xt5T+0/rS/Pnk5QNwRLsCRPqVAvWVhwS3P50CK9Sk/MU/Kv3LajkBiwZXAww4SQET7NUBo9vC/
lpc_rms=-29.77
pitch_keycenter=g6
sample=Soloviolin2_sul_tasto_MF_G6.opus
</region>
</group>